<?xml version="1.0" encoding="utf-8"?>
<!-- Generator: Adobe Illustrator 25.2.1, SVG Export Plug-In . SVG Version: 6.00 Build 0)  -->
<svg version="1.1" id="Layer_1" xmlns="http://www.w3.org/2000/svg" xmlns:xlink="http://www.w3.org/1999/xlink" x="0px" y="0px"
	 viewBox="0 0 90 34" style="enable-background:new 0 0 90 34;" xml:space="preserve">
<style type="text/css">
	.st0{enable-background:new    ;}
	.st1{fill:#FFFFFF;}
</style>
<desc>Created with Sketch.</desc>
<g class="st0">
	<path class="st1" d="M25.3,1.3H5.9c-1.8,0-3.3,1.5-3.3,3.3S4.1,8,5.9,8h12.3L16,10.8c-1.2,1.4-1,3.5,0.5,4.7
		c0.6,0.5,1.4,0.8,2.1,0.8c1,0,1.9-0.4,2.6-1.2l6.7-8.3c0.8-1,1-2.4,0.4-3.6C27.8,2,26.6,1.3,25.3,1.3z"/>
	<path class="st1" d="M24.9,25.8H12.5l2.3-2.8c1.2-1.4,1-3.5-0.5-4.7c-1.4-1.2-3.5-1-4.7,0.5l-6.7,8.3c-0.8,1-1,2.4-0.4,3.6
		c0.6,1.2,1.7,1.9,3,1.9h19.4c1.8,0,3.3-1.5,3.3-3.3C28.2,27.3,26.7,25.8,24.9,25.8z"/>
	<path class="st1" d="M48.1,3.5c-0.5-1.2-1.7-2-3.1-2c0,0,0,0,0,0c-1.3,0-2.5,0.8-3.1,2L31.5,27.8c-0.7,1.7,0,3.7,1.7,4.4
		c1.7,0.7,3.7,0,4.4-1.7L45,13.4l7.2,17.1c0.5,1.3,1.8,2,3.1,2c0.4,0,0.9-0.1,1.3-0.3c1.7-0.7,2.5-2.7,1.8-4.4L48.1,3.5z"/>
	<path class="st1" d="M87.1,27.1L79.2,17l7.7-10.3C88,5.2,87.7,3.1,86.2,2c-1.5-1.1-3.6-0.8-4.7,0.7L75,11.5l-6.8-8.7
		c-1.1-1.5-3.2-1.7-4.7-0.6c-1.5,1.1-1.7,3.2-0.6,4.7l7.9,10.2l-7.7,10.3c-1.1,1.5-0.8,3.6,0.7,4.7c0.6,0.4,1.3,0.7,2,0.7
		c1,0,2-0.5,2.7-1.3l6.6-8.8l6.8,8.7c0.7,0.8,1.6,1.3,2.6,1.3c0.7,0,1.4-0.2,2.1-0.7C88,30.7,88.3,28.6,87.1,27.1z"/>
</g>
</svg>
